<svg width="36.000122" height="33.035400" viewBox="0 0 36.0001 33.0354" fill="none" xmlns="http://www.w3.org/2000/svg" xmlns:xlink="http://www.w3.org/1999/xlink">
	<desc>
			Created with Pixso.
	</desc>
	<defs/>
	<path id="Vector" d="M12.03 23.44L15.67 23.44L15.67 23.74L12.03 23.74L12.03 23.44ZM28.03 23.44L36 23.44L36 23.74L28.03 23.74L28.03 23.44ZM27.84 12.39C28.17 12.85 28.44 13.25 28.65 13.6C28.72 12.46 28.92 11.76 29.12 11.36L29.12 14.51C29.22 14.77 29.29 15.05 29.3 15.33C29.3 15.54 29.26 15.72 29.18 15.89C29.16 15.93 29.14 15.96 29.12 16L29.12 21.9C29.12 22.13 29.21 22.35 29.37 22.52C29.53 22.68 29.75 22.77 29.99 22.77C30.22 22.77 30.44 22.68 30.6 22.52C30.76 22.35 30.85 22.13 30.85 21.9L30.85 15.55L31.18 15.55L31.18 21.9C31.18 22.13 31.27 22.35 31.43 22.52C31.6 22.68 31.82 22.77 32.05 22.77C32.28 22.77 32.5 22.68 32.66 22.52C32.83 22.35 32.92 22.13 32.92 21.9L32.92 14.8C30.94 12.67 29.58 10.32 29.25 9.73C29.19 9.75 29.12 9.78 29.06 9.81C28.68 10 28.27 10.41 27.98 11.14C27.86 11.44 27.76 11.8 27.68 12.23C27.74 12.28 27.79 12.33 27.84 12.39ZM27.5 14.85L27.51 14.91L27.54 14.92C27.53 14.89 27.52 14.87 27.5 14.85Z" fill="#45766A" fill-opacity="1.000000" fill-rule="nonzero"/>
	<path id="Vector" d="M30.43 11.21C31.04 12.13 31.89 13.31 32.92 14.44L32.92 11.36C32.96 11.44 33 11.54 33.04 11.66C33.24 12.21 33.41 13.11 33.41 14.51C33.41 14.9 33.4 15.33 33.37 15.79C33.36 15.87 33.37 15.95 33.4 16.02C33.43 16.09 33.47 16.16 33.52 16.21C33.57 16.27 33.64 16.31 33.71 16.34C33.78 16.37 33.85 16.39 33.93 16.39C34.07 16.39 34.21 16.33 34.32 16.24C34.42 16.14 34.48 16 34.49 15.86C34.52 15.41 34.53 14.96 34.53 14.51C34.53 12.39 34.19 11.22 33.73 10.51C33.5 10.16 33.23 9.94 32.98 9.81C32.73 9.69 32.51 9.66 32.39 9.66L32.38 9.66C32.38 9.66 32.38 9.66 32.38 9.66L29.66 9.66C29.66 9.66 29.65 9.66 29.65 9.66L29.65 9.66C29.6 9.66 29.55 9.66 29.5 9.67C29.65 9.95 29.97 10.5 30.43 11.21Z" fill="#45766A" fill-opacity="1.000000" fill-rule="nonzero"/>
	<path id="Vector" d="M32.6 7.68C32.6 8.55 31.89 9.26 31.02 9.26C30.14 9.26 29.44 8.55 29.44 7.68C29.44 6.8 30.14 6.1 31.02 6.1C31.89 6.1 32.6 6.8 32.6 7.68Z" fill="#45766A" fill-opacity="1.000000" fill-rule="evenodd"/>
	<path id="Vector" d="M4.76 17.39L4.76 31.53C4.76 32.36 5.43 33.03 6.26 33.03C7.08 33.03 7.75 32.36 7.75 31.53L7.75 20.62L8.31 20.62L8.31 31.53C8.31 32.36 8.98 33.03 9.81 33.03C10.63 33.03 11.3 32.36 11.3 31.53L11.3 13.39C11.38 13.56 11.46 13.73 11.52 13.91C11.86 14.85 12.15 16.4 12.15 18.82C12.15 19.49 12.12 20.22 12.08 21.03C12.05 21.56 12.45 22.02 12.99 22.05C13.24 22.07 13.5 21.98 13.69 21.81C13.88 21.64 13.99 21.4 14.01 21.14C14.06 20.3 14.08 19.53 14.08 18.82C14.08 15.17 13.49 13.15 12.7 11.94C12.3 11.33 11.84 10.95 11.41 10.73C10.99 10.52 10.62 10.48 10.41 10.47C10.39 10.47 10.38 10.47 10.37 10.47L9.8 10.47L9.5 12.8L8.32 11.38L9.14 10.47L6.92 10.47L7.74 11.38L6.56 12.8L6.26 10.47L5.7 10.47C5.66 10.47 5.62 10.47 5.59 10.48C5.16 10.48 4.72 10.51 4.29 10.52C4.17 10.52 4.05 10.53 3.93 10.53C3.24 10.53 2.65 10.44 2.37 10.26C2.22 10.18 2.15 10.1 2.07 9.97C2 9.83 1.93 9.61 1.93 9.24C1.93 8.83 2.02 8.26 2.24 7.51C2.32 7.27 2.29 7 2.17 6.78C2.05 6.55 1.85 6.38 1.6 6.31C1.59 6.31 1.59 6.3 1.58 6.3L1.58 3.78C1.84 3.36 2.52 2.6 3.7 3.3C6.89 5.2 7.08 0.76 7.08 0.76C7.08 0.76 5.41 1.69 4.2 0.6C3.18 -0.32 1.94 0.2 1.58 0.38L1.58 0L1.14 0L1.14 6.28C0.96 6.32 0.8 6.4 0.67 6.51C0.54 6.63 0.44 6.78 0.39 6.95C0.13 7.83 0 8.57 0 9.24C-0.01 9.85 0.11 10.4 0.36 10.87C0.74 11.59 1.4 12.02 2.04 12.22C2.68 12.42 3.32 12.46 3.93 12.46C3.97 12.46 4 12.46 4.03 12.46C4.28 12.46 4.53 12.45 4.76 12.44L4.76 17.39Z" fill="#45766A" fill-opacity="1.000000" fill-rule="nonzero"/>
	<path id="Vector" d="M8.48 9.75C9.77 9.53 10.75 8.41 10.75 7.06C10.75 5.56 9.54 4.34 8.03 4.34C6.53 4.34 5.31 5.56 5.31 7.06C5.31 8.41 6.3 9.53 7.59 9.75C7.73 9.77 7.88 9.78 8.03 9.78C8.18 9.78 8.33 9.77 8.48 9.75ZM22.22 15.63C22.1 14.41 21.82 13.64 21.48 13.12C21.25 12.77 20.98 12.54 20.73 12.42C20.48 12.29 20.26 12.27 20.14 12.27L20.14 12.27C20.14 12.27 20.13 12.27 20.13 12.27L19.65 12.27C19.87 13.2 19.92 14.06 19.92 14.7C19.92 15.09 19.9 15.4 19.88 15.59L19.88 16.89L17.66 16.89L17.66 15.6C17.63 15.3 17.62 15 17.62 14.7C17.62 14.06 17.68 13.2 17.9 12.27L17.41 12.27C17.41 12.27 17.41 12.27 17.4 12.27L17.4 12.27C17.28 12.27 17.06 12.29 16.81 12.42C16.43 12.61 16.02 13.02 15.74 13.74C15.45 14.47 15.26 15.53 15.26 17.12C15.26 17.53 15.27 17.98 15.3 18.47C15.31 18.61 15.37 18.75 15.47 18.84C15.58 18.94 15.72 19 15.86 19C15.87 19 15.88 19 15.89 19C16.04 18.99 16.18 18.92 16.28 18.81C16.38 18.7 16.43 18.55 16.42 18.4C16.39 17.98 16.38 17.55 16.38 17.12C16.38 15.42 16.63 14.46 16.87 13.96L16.87 24.51C16.87 24.74 16.96 24.96 17.13 25.12C17.29 25.29 17.51 25.38 17.74 25.38C17.97 25.38 18.19 25.29 18.35 25.12C18.52 24.96 18.61 24.74 18.61 24.51L18.61 18.16L18.93 18.16L18.93 24.51C18.93 24.74 19.03 24.96 19.19 25.12C19.35 25.29 19.57 25.38 19.8 25.38C20.03 25.38 20.26 25.29 20.42 25.12C20.58 24.96 20.67 24.74 20.67 24.51L20.67 13.97C20.72 14.05 20.76 14.15 20.8 14.26C21 14.81 21.16 15.71 21.16 17.12C21.16 17.51 21.15 17.93 21.12 18.4C21.11 18.61 21.21 18.79 21.37 18.9C21.43 17.85 21.58 17.01 21.85 16.34C21.96 16.06 22.09 15.82 22.22 15.63Z" fill="#45766A" fill-opacity="1.000000" fill-rule="nonzero"/>
	<path id="Vector" d="M17.83 14.7C17.83 15.02 17.84 15.29 17.86 15.48L19.68 15.48C19.7 15.29 19.71 15.02 19.71 14.7C19.71 14.06 19.65 13.2 19.43 12.27L18.12 12.27C17.89 13.2 17.83 14.06 17.83 14.7Z" fill="#45766A" fill-opacity="1.000000" fill-rule="nonzero"/>
	<path id="Vector" d="M20.35 10.28C20.35 11.16 19.65 11.87 18.77 11.87C17.9 11.87 17.19 11.16 17.19 10.28C17.19 9.41 17.9 8.7 18.77 8.7C19.65 8.7 20.35 9.41 20.35 10.28Z" fill="#45766A" fill-opacity="1.000000" fill-rule="evenodd"/>
	<path id="Vector" d="M19.17 16.22C19.17 16.44 18.99 16.62 18.77 16.62C18.55 16.62 18.37 16.44 18.37 16.22C18.37 16 18.55 15.83 18.77 15.83C18.99 15.83 19.17 16 19.17 16.22Z" fill="#45766A" fill-opacity="1.000000" fill-rule="evenodd"/>
	<path id="Vector" d="M24.28 12.14L26.45 12.14C26.17 11.69 25.67 11.39 25.1 11.39C24.23 11.39 23.52 12.1 23.52 12.97C23.52 13.85 24.23 14.55 25.1 14.55C25.69 14.55 26.2 14.23 26.48 13.75L24.28 13.75L24.28 12.14L24.28 12.14Z" fill="#45766A" fill-opacity="1.000000" fill-rule="nonzero"/>
	<path id="Vector" d="M26.06 12.95C26.06 13.19 25.87 13.38 25.63 13.38C25.39 13.38 25.2 13.19 25.2 12.95C25.2 12.71 25.39 12.51 25.63 12.51C25.87 12.51 26.06 12.71 26.06 12.95Z" fill="#45766A" fill-opacity="1.000000" fill-rule="evenodd"/>
	<path id="Vector" d="M29.05 15.34C29.05 14.97 28.92 14.63 28.7 14.19C28.47 13.74 28.13 13.21 27.64 12.53C27.6 12.47 27.55 12.42 27.48 12.38C27.42 12.35 27.35 12.32 27.28 12.31C27.2 12.3 27.13 12.3 27.06 12.32C26.99 12.33 26.92 12.37 26.86 12.41C26.8 12.45 26.75 12.51 26.71 12.57C26.67 12.63 26.65 12.7 26.63 12.78C26.62 12.85 26.63 12.92 26.64 13C26.66 13.07 26.69 13.14 26.73 13.2C27.2 13.84 27.51 14.34 27.7 14.7C27.82 14.92 27.88 15.1 27.91 15.21C27.75 15.21 27.49 15.16 27.24 15.1C27.11 15.07 26.98 15.04 26.85 15.01C26.74 14.99 26.63 14.97 26.52 14.96C26.5 14.96 26.48 14.96 26.46 14.96L23.75 14.96C23.74 14.96 23.74 14.96 23.74 14.96L23.74 14.96C23.61 14.96 23.39 14.98 23.14 15.11C22.76 15.29 22.36 15.7 22.07 16.43C21.78 17.16 21.59 18.22 21.59 19.81C21.59 20.22 21.6 20.67 21.63 21.16C21.64 21.3 21.71 21.44 21.82 21.54C21.93 21.64 22.07 21.69 22.22 21.68C22.37 21.68 22.51 21.61 22.61 21.5C22.71 21.39 22.76 21.24 22.75 21.09C22.73 20.66 22.71 20.24 22.71 19.81C22.71 18.11 22.96 17.15 23.2 16.65L23.2 27.2C23.2 27.68 23.59 28.07 24.07 28.07C24.55 28.07 24.94 27.68 24.94 27.2L24.94 20.85L25.27 20.85L25.27 27.2C25.27 27.43 25.36 27.65 25.52 27.81C25.68 27.97 25.91 28.07 26.14 28.07C26.25 28.07 26.36 28.04 26.47 28C26.57 27.96 26.67 27.89 26.75 27.81C26.83 27.73 26.9 27.64 26.94 27.53C26.98 27.42 27.01 27.31 27.01 27.2L27.01 16.2C27.07 16.21 27.14 16.23 27.21 16.24C27.44 16.29 27.68 16.34 27.94 16.34C28.16 16.33 28.4 16.31 28.65 16.14C28.78 16.05 28.89 15.93 28.96 15.79C29.03 15.64 29.05 15.48 29.05 15.34Z" fill="#45766A" fill-opacity="1.000000" fill-rule="nonzero"/>
</svg>
