<svg width="36.000000" height="36.000000" viewBox="0 0 36 36" fill="none" xmlns="http://www.w3.org/2000/svg" xmlns:xlink="http://www.w3.org/1999/xlink">
	<desc>
			Created with Pixso.
	</desc>
	<defs>
		<clipPath id="clip1_56">
			<rect id="Frame" rx="0.000000" width="35.000000" height="35.000000" transform="translate(0.500000 0.500000)" fill="white" fill-opacity="0"/>
		</clipPath>
	</defs>
	<rect id="Frame" rx="0.000000" width="35.000000" height="35.000000" transform="translate(0.500000 0.500000)" fill="#FFFFFF" fill-opacity="0"/>
	<g clip-path="url(#clip1_56)">
		<path id="Vector" d="M32.4 7.06C32.33 6.74 32.21 6.44 32.05 6.17C32.05 6.17 28.15 0 17.99 0C7.85 0 3.94 6.17 3.94 6.17C3.8 6.39 3.64 6.79 3.59 7.06C3.59 7.06 2.83 11.06 4.08 16.8C5.23 22.07 8.41 29.63 17.05 35.69C17.33 35.89 17.66 35.99 18 35.99C18.33 35.99 18.66 35.89 18.94 35.69C27.57 29.63 30.75 22.07 31.9 16.8C33.16 11.06 32.4 7.06 32.4 7.06ZM28.58 16.07C28.54 16.22 28.51 16.38 28.47 16.54L17.99 16.54L17.99 32.17C11.26 27.06 8.57 20.97 7.52 16.54L17.99 16.54L17.99 3.4C25.22 3.4 28.44 7.04 29.08 7.87C29.18 8.63 29.51 11.79 28.58 16.07Z" fill="#6276AA" fill-opacity="1.000000" fill-rule="nonzero"/>
	</g>
</svg>
