<svg width="17.578125" height="36.000000" viewBox="0 0 17.5781 36" fill="none" xmlns="http://www.w3.org/2000/svg" xmlns:xlink="http://www.w3.org/1999/xlink">
	<desc>
			Created with Pixso.
	</desc>
	<defs/>
	<path id="Vector" d="M17.08 9.44L9.84 4.83L9.84 1.05C9.84 0.47 9.37 0 8.78 0C8.2 0 7.73 0.47 7.73 1.05L7.73 4.83L0.48 9.44C0.33 9.54 0.21 9.67 0.13 9.82C0.04 9.98 0 10.15 0 10.33L0 34.94C0 35.52 0.47 36 1.05 36L16.52 36C17.1 36 17.57 35.52 17.57 34.94L17.57 10.33C17.57 9.97 17.39 9.63 17.08 9.44ZM8.78 17.29C6.85 17.29 5.27 15.71 5.27 13.78C5.27 12.21 6.3 10.87 7.73 10.42L7.73 11.32C7.73 11.9 8.2 12.37 8.78 12.37C9.37 12.37 9.84 11.9 9.84 11.32L9.84 10.42C11.26 10.87 12.3 12.21 12.3 13.78C12.3 15.71 10.72 17.29 8.78 17.29Z" fill="#F2BE22" fill-opacity="1.000000" fill-rule="nonzero"/>
</svg>
